<?xml version="1.0" encoding="UTF-8" standalone="no" ?>
<!DOCTYPE svg PUBLIC "-//W3C//DTD SVG 1.1//EN" "http://www.w3.org/Graphics/SVG/1.1/DTD/svg11.dtd">
<svg xmlns="http://www.w3.org/2000/svg" xmlns:xlink="http://www.w3.org/1999/xlink" version="1.1" width="500" height="500" viewBox="0 0 500 500" xml:space="preserve">
<!-- Created with SVG Stack Editor - https://svgstack.com -->
<defs>
</defs>
<rect x="0" y="0" width="100%" height="100%" fill="transparent"></rect>
<g transform="matrix(0.64 0 0 0.64 250 250)"  >
<g style=""   >
		<g transform="matrix(2 0 0 2 0 0)" id="path_0"  >
<path style="stroke: none; stroke-width: 1; stroke-dasharray: none; stroke-linecap: butt; stroke-dashoffset: 0; stroke-linejoin: miter; stroke-miterlimit: 4; fill: rgb(255,255,255); fill-rule: nonzero; opacity: 1;"  transform=" translate(-256.11, -255.56)" d="M 296.235 77.7502 C 316.385 75.5917 336.835 87.7488 345.693 105.701 C 347.619 109.606 348.445 114.058 350.749 117.775 C 363.842 113.185 379.695 118.074 390.244 126.31 C 402.683 136.021 405.27 146.419 407.076 160.791 C 423.043 170.436 429.956 187.555 427.046 205.953 C 453.613 219.297 458.794 256.247 439.834 278.75 C 447.037 290.651 446.983 306.661 437.613 317.451 C 435.587 319.784 433.096 321.643 431.175 324.082 L 430.922 324.409 C 429.569 327.657 429.119 331.136 428.082 334.485 C 422.015 354.07 411.538 359.498 395.562 367.973 C 393.561 387.54 370.561 405.823 351.405 407.559 C 346.912 407.966 342.426 407.458 337.932 407.738 C 335.265 413.843 327.414 422.373 321.925 425.958 C 298.95 440.968 270.477 432.973 255.928 410.294 C 246.773 424.707 231.589 434.467 213.938 433.381 C 194.311 431.972 183.826 423.202 173.861 407.738 C 169.833 407.252 165.794 407.389 161.752 407.178 C 140.011 406.039 120.843 389.524 116.97 367.973 C 97.7105 362.284 83.1654 344.81 82.6697 324.409 C 66.2179 312.854 62.711 296.608 71.8916 278.75 C 69.4477 274.746 66.3645 271.254 64.4831 266.898 C 55.7458 246.667 63.9825 214.715 85.1417 205.953 C 85.3631 185.416 86.4365 172.582 105.707 159.54 C 106.218 154.933 106.635 150.525 108.017 146.061 C 114.985 123.549 139.029 110.576 161.624 117.775 L 163.181 113.087 C 177.726 70.0459 237.001 66.1204 255.928 104.747 C 265.765 88.8591 277.043 80.5437 296.235 77.7502 Z M 298.06 89.1588 C 281.694 90.5833 266.35 102.678 262.519 118.881 C 260.813 126.094 261.63 134.223 261.637 141.605 L 261.613 170.316 C 261.634 177.792 263.548 181.774 255.928 185.389 C 247.607 182.311 250.133 176.513 250.158 168.9 L 250.189 141.181 C 250.19 129.976 251.386 120.038 245.853 109.865 C 235.947 91.6521 215.21 84.5482 196.083 92.7184 C 169.935 103.888 175.518 126.582 168.507 129.828 C 165.257 131.333 161.372 129.206 158.226 128.292 C 139.956 122.986 121.018 134.73 117.908 153.27 C 125.479 148.932 150.787 142.34 149.627 156.762 C 146.366 162.876 142.958 159.948 137.562 159.286 C 121.674 157.339 117.419 170.156 116.97 182.545 C 114.786 185.086 110.806 187.216 107.844 184.54 C 105.267 182.211 106.018 177.269 105.707 174.112 C 98.4225 181.723 95.1182 191.181 96.5208 201.595 C 103.784 200.71 118.072 198.263 120.37 207.518 C 118.037 216.438 111.691 211.948 105.037 211.993 C 67.4684 212.246 58.7788 271.292 96.5208 280.857 C 96.4825 274.654 94.9955 267.94 102.721 266.781 C 110.352 269.434 107.599 278.692 107.71 285.059 L 107.525 285.379 C 105.137 289.456 101.737 292.921 99.23 296.948 C 87.035 316.533 93.6813 348.177 117.207 356.039 C 129.593 360.178 125.745 357.72 128.591 368.401 C 134.879 392.001 153.012 396.234 174.326 396.214 C 183.876 396.205 181.244 397.555 185.595 405.102 C 190.478 413.572 198.74 419.147 208.19 421.326 C 226.819 425.054 245.878 414.212 249.592 394.967 C 250.67 389.377 250.212 383.311 250.204 377.636 L 250.165 350.675 C 250.163 345.513 248.093 332.773 257.178 334.438 C 263.186 335.538 261.683 345.154 261.639 349.392 L 261.614 374.27 C 261.601 389.622 260.448 402.798 273.296 413.825 C 290.042 428.198 319.048 423.242 327.554 403.153 C 329.19 399.289 329.433 396.644 333.721 395.092 C 356.445 399.342 378.247 390.395 384.098 366.635 C 384.78 363.866 385.051 360.295 386.593 357.884 C 389.713 356.03 393.45 355.661 396.781 354.317 C 415.629 346.707 423.029 323.423 416.563 305.091 C 414.017 297.873 404.762 287.31 404.177 284.518 C 403.438 280.994 403.741 274.277 404.002 270.68 C 413.991 263.04 415.052 273.435 415.377 280.857 C 456.856 269.778 440.425 206.053 402.823 212.044 C 400.693 212.383 398.165 213.074 396.032 212.643 C 392.598 211.949 390.474 207.117 392.188 204.078 C 395.178 198.776 409.5 200.466 414.284 200.935 C 419.046 201.403 414.994 187.48 414.14 185.198 C 412.475 180.748 409.757 177.908 407.076 174.112 C 406.593 179.59 402.647 192.685 395.89 184.573 C 393.63 181.861 395.078 177.235 394.624 173.91 C 391.526 151.186 367.751 163.2 364.184 158.892 C 361.958 156.204 362.138 152.336 365.133 150.396 C 374.926 144.051 386.392 148.887 395.562 153.27 C 393.94 150.454 392.847 147.417 391.258 144.601 C 383.453 130.766 367.166 124.518 352.034 128.763 C 338.057 132.685 341.42 127.927 338.641 117.831 C 333.801 100.246 316.312 87.4503 298.06 89.1588 Z M 80.6673 286.824 C 76.306 294.988 77.5168 304.033 83.8336 310.624 L 83.8336 306.31 C 85.0101 300.705 86.6454 295.752 89.6858 290.853 C 86.6411 289.6 83.7178 288.053 80.6673 286.824 Z M 430.922 286.824 C 428.094 288.578 425.197 289.793 422.047 290.853 C 424.717 295.611 426.903 300.125 428.517 305.364 C 428.846 306.666 429.185 307.927 429.652 309.187 C 433.269 303.896 435.536 291.884 430.922 286.824 Z" stroke-linecap="round" />
</g>
		<g transform="matrix(2 0 0 2 256.88 -1.4)" id="path_1"  >
<path style="stroke: none; stroke-width: 1; stroke-dasharray: none; stroke-linecap: butt; stroke-dashoffset: 0; stroke-linejoin: miter; stroke-miterlimit: 4; fill: rgb(255,255,255); fill-rule: nonzero; opacity: 1;"  transform=" translate(-384.55, -254.86)" d="M 398.035 234.563 C 413.704 231.583 406.083 274.637 370.688 275.307 C 366.052 275.27 362.096 272.487 363.667 267.371 C 365.727 260.663 391.548 268.082 393.997 244.634 C 394.46 240.195 393.262 236.726 398.035 234.563 Z" stroke-linecap="round" />
</g>
		<g transform="matrix(2 0 0 2 -256.9 -2.55)" id="path_2"  >
<path style="stroke: none; stroke-width: 1; stroke-dasharray: none; stroke-linecap: butt; stroke-dashoffset: 0; stroke-linejoin: miter; stroke-miterlimit: 4; fill: rgb(255,255,255); fill-rule: nonzero; opacity: 1;"  transform=" translate(-127.66, -254.29)" d="M 110.03 233.555 C 123.035 231.418 111.067 259.686 138.115 262.974 C 143.765 263.661 148.034 262.476 149.627 269.191 C 149.044 271.777 147.858 273.408 145.54 274.746 C 117.114 279.469 96.2822 239.887 110.03 233.555 Z" stroke-linecap="round" />
</g>
		<g transform="matrix(2 0 0 2 -242.86 125.17)" id="path_3"  >
<path style="stroke: none; stroke-width: 1; stroke-dasharray: none; stroke-linecap: butt; stroke-dashoffset: 0; stroke-linejoin: miter; stroke-miterlimit: 4; fill: rgb(255,255,255); fill-rule: nonzero; opacity: 1;"  transform=" translate(-134.68, -318.15)" d="M 149.627 294.245 C 154.723 292.309 156.883 297.354 156.734 301.492 C 154.355 306.084 151.286 304.981 146.83 306.187 C 119.628 313.553 128.338 338.233 120.37 342.237 C 102.992 346.298 115.71 296.867 149.627 294.245 Z" stroke-linecap="round" />
</g>
		<g transform="matrix(2 0 0 2 -99.7 -256.63)" id="path_4"  >
<path style="stroke: none; stroke-width: 1; stroke-dasharray: none; stroke-linecap: butt; stroke-dashoffset: 0; stroke-linejoin: miter; stroke-miterlimit: 4; fill: rgb(255,255,255); fill-rule: nonzero; opacity: 1;"  transform=" translate(-206.26, -127.25)" d="M 203.75 109.834 C 231.08 106.367 240.349 146.59 224.117 143.327 C 217.093 141.915 226.605 124.082 206.868 120.724 C 186.628 122.675 194.417 137.87 190.26 142.638 C 185.585 147.998 180.477 142.86 180.391 136.216 C 180.219 122.925 189.543 109.879 203.75 109.834 Z" stroke-linecap="round" />
</g>
		<g transform="matrix(2 0 0 2 100.08 -256.47)" id="path_5"  >
<path style="stroke: none; stroke-width: 1; stroke-dasharray: none; stroke-linecap: butt; stroke-dashoffset: 0; stroke-linejoin: miter; stroke-miterlimit: 4; fill: rgb(255,255,255); fill-rule: nonzero; opacity: 1;"  transform=" translate(-306.14, -127.33)" d="M 302.715 109.834 C 335.548 106.542 337.603 150.583 324.057 144.4 C 316.763 141.071 325.982 128.223 310.585 121.58 C 287.191 116.981 295.142 141.31 287.836 143.286 C 276.337 146.398 280.581 126.275 284.41 120.689 C 288.771 114.326 295.311 111.172 302.715 109.834 Z" stroke-linecap="round" />
</g>
		<g transform="matrix(2 0 0 2 228.67 127.01)" id="path_6"  >
<path style="stroke: none; stroke-width: 1; stroke-dasharray: none; stroke-linecap: butt; stroke-dashoffset: 0; stroke-linejoin: miter; stroke-miterlimit: 4; fill: rgb(255,255,255); fill-rule: nonzero; opacity: 1;"  transform=" translate(-370.44, -319.07)" d="M 348.699 293.501 C 365.716 292.148 383.106 300.049 392.706 314.265 C 396.255 319.52 408.542 348.234 392.359 344.44 C 388.29 342.58 389.108 337.986 388.547 334.232 C 385.933 316.742 370.77 305.43 353.375 304.777 C 347.491 304.556 336.415 307.025 341.795 295.45 C 344.049 294.03 346.105 293.683 348.699 293.501 Z" stroke-linecap="round" />
</g>
		<g transform="matrix(2 0 0 2 127.11 210.26)" id="path_7"  >
<path style="stroke: none; stroke-width: 1; stroke-dasharray: none; stroke-linecap: butt; stroke-dashoffset: 0; stroke-linejoin: miter; stroke-miterlimit: 4; fill: rgb(255,255,255); fill-rule: nonzero; opacity: 1;"  transform=" translate(-319.66, -360.69)" d="M 343.875 329.558 C 357.745 328.272 352.234 366.853 319.199 365.745 C 316.605 375.497 314.716 382.997 305.585 388.668 C 299.762 392.283 285.349 394.858 288.89 384.672 C 290.272 380.697 295.748 380.85 299.072 379.276 C 309.071 373.138 310.622 357.675 299.593 351.578 C 297.637 350.497 294.198 349.703 292.935 347.824 C 289.44 342.628 294.356 337.758 299.726 339.106 C 307.491 341.054 312.391 347.433 316.258 353.934 C 326.755 355.934 338.706 351.596 339.665 339.67 C 340.043 334.961 338.968 331.963 343.875 329.558 Z" stroke-linecap="round" />
</g>
		<g transform="matrix(2 0 0 2 -131.31 208.59)" id="path_8"  >
<path style="stroke: none; stroke-width: 1; stroke-dasharray: none; stroke-linecap: butt; stroke-dashoffset: 0; stroke-linejoin: miter; stroke-miterlimit: 4; fill: rgb(255,255,255); fill-rule: nonzero; opacity: 1;"  transform=" translate(-190.45, -359.85)" d="M 163.964 327.269 C 172.012 327.764 169.16 334.631 170.051 340.089 C 171.745 350.479 181.689 356.58 191.752 353.815 C 198.956 351.836 201.388 340.306 213.611 338.53 C 217.279 337.997 221.053 340.254 221.412 344.154 C 221.849 348.916 215.403 349.912 212.274 351.592 C 202.084 357.063 200.906 370.036 209.411 377.493 C 213.229 380.964 217.362 380.193 220.614 382.769 C 224.563 385.898 222.211 392.202 217.226 392.421 C 203.29 393.033 192.956 378.411 192.476 365.745 C 177.48 366.093 165.431 361.749 160.139 346.189 C 158.061 340.08 156.126 329.775 163.964 327.269 Z" stroke-linecap="round" />
</g>
		<g transform="matrix(2 0 0 2 -173.91 -122.06)" id="path_9"  >
<path style="stroke: none; stroke-width: 1; stroke-dasharray: none; stroke-linecap: butt; stroke-dashoffset: 0; stroke-linejoin: miter; stroke-miterlimit: 4; fill: rgb(255,255,255); fill-rule: nonzero; opacity: 1;"  transform=" translate(-169.15, -194.53)" d="M 198.083 153.27 C 203.735 152.514 210.485 154.952 206.702 161.472 C 204.246 165.705 198.084 163.693 193.644 164.961 C 175.584 170.119 181.593 184.765 178.215 190.433 C 174.44 196.765 168.877 191.705 167.536 185.389 C 152.344 178.553 138.002 193.859 142.264 209.373 C 147.219 227.408 163.019 221.72 164.952 229.669 L 165.033 230.013 C 162.753 247.22 120.448 224.56 132.737 191.712 C 138.177 177.172 154.736 168.413 169.605 174.112 C 174.606 162.477 184.607 152.764 198.083 153.27 Z" stroke-linecap="round" />
</g>
		<g transform="matrix(2 0 0 2 173.06 -121.56)" id="path_10"  >
<path style="stroke: none; stroke-width: 1; stroke-dasharray: none; stroke-linecap: butt; stroke-dashoffset: 0; stroke-linejoin: miter; stroke-miterlimit: 4; fill: rgb(255,255,255); fill-rule: nonzero; opacity: 1;"  transform=" translate(-342.63, -194.78)" d="M 308.378 153.27 C 323.246 151.995 334.418 159.839 341.795 172.497 C 374.35 165.609 395.842 205.259 370.623 228.23 C 363.208 234.984 353.603 236.819 343.875 236.369 C 343.137 235.812 342.472 235.191 341.795 234.563 C 335.191 220.678 356.355 230.417 366.952 215.148 C 377.213 200.365 363.544 179.669 343.875 183.805 C 344.44 188.733 341.935 194.557 336.007 191.861 C 331.164 189.658 332.934 181.956 331.304 177.607 C 324.285 158.889 307.076 169.023 303.596 159.54 C 304.328 156.22 304.916 154.557 308.378 153.27 Z" stroke-linecap="round" />
</g>
		<g transform="matrix(2 0 0 2 88.25 1.02)" id="path_11"  >
<path style="stroke: none; stroke-width: 1; stroke-dasharray: none; stroke-linecap: butt; stroke-dashoffset: 0; stroke-linejoin: miter; stroke-miterlimit: 4; fill: rgb(255,255,255); fill-rule: nonzero; opacity: 1;"  transform=" translate(-300.23, -256.07)" d="M 294.002 200.001 C 319.924 197.074 319.182 206.429 319.192 228.624 L 319.208 284.436 C 319.225 296.229 321.708 308.168 307.435 312.521 C 283.865 313.483 281.249 310.088 281.242 286.688 L 281.247 228.001 C 281.25 216.741 278.613 201.858 294.002 200.001 Z M 294.002 211.01 C 290.906 211.736 292.268 216.518 292.254 218.968 L 292.215 290.331 C 292.215 293.856 292.011 297.489 292.217 301.002 C 297.275 300.738 302.37 301.038 307.435 301.002 L 307.955 300.845 C 309.195 298.123 308.372 292.09 308.372 289.057 L 308.378 211.01 C 303.564 211.443 298.821 211.314 294.002 211.01 Z" stroke-linecap="round" />
</g>
		<g transform="matrix(2 0 0 2 -81.97 3.03)" id="path_12"  >
<path style="stroke: none; stroke-width: 1; stroke-dasharray: none; stroke-linecap: butt; stroke-dashoffset: 0; stroke-linejoin: miter; stroke-miterlimit: 4; fill: rgb(255,255,255); fill-rule: nonzero; opacity: 1;"  transform=" translate(-215.12, -257.08)" d="M 206.868 200.001 C 225.509 199.422 236.156 197.635 241.788 217.567 C 246.516 234.295 250.45 251.303 254.871 268.118 L 259.341 284.89 C 261.205 291.967 262.725 296.671 258.831 303.517 C 249.122 320.585 225.265 315.111 220.581 296.94 C 220.533 296.048 220.575 295.139 220.581 294.245 L 209.411 294.245 C 205.514 309.738 192.166 320.842 177.127 310.354 C 163.595 300.918 170.185 284.445 173.832 271.72 L 187.293 224.064 C 190.896 211.602 191.542 202.285 206.868 200.001 Z M 208.19 211.01 C 205.64 211.279 203.697 211.877 202.053 213.954 C 200.359 216.094 180.63 288.199 179.774 294.421 C 178.82 301.361 189.259 304.933 194.322 300.59 C 197.45 297.907 199.778 287.525 200.931 282.75 L 221.375 282.75 L 228.61 282.75 C 229.953 288.277 231.149 298.228 236.148 301.356 C 240.484 304.07 246.112 302.764 248.734 298.351 C 251.341 293.963 248.465 287.596 247.344 283.084 L 236.798 242.678 C 235.664 238.26 230.852 214.182 227.448 212.248 C 223.984 210.28 212.379 210.823 208.19 211.01 Z" stroke-linecap="round" />
</g>
		<g transform="matrix(2 0 0 2 -82.28 -14.58)" id="path_13"  >
<path style="stroke: none; stroke-width: 1; stroke-dasharray: none; stroke-linecap: butt; stroke-dashoffset: 0; stroke-linejoin: miter; stroke-miterlimit: 4; fill: rgb(255,255,255); fill-rule: nonzero; opacity: 1;"  transform=" translate(-214.97, -248.27)" d="M 213.938 231.323 C 215.046 231.287 216.156 231.314 217.264 231.323 C 219.983 242.554 222.281 253.91 224.662 265.218 C 221.673 265.271 218.677 265.223 215.687 265.218 C 212.498 264.8 208.488 264.975 205.269 265.218 C 206.199 260.83 211.758 233.532 213.938 231.323 Z" stroke-linecap="round" />
</g>
</g>
</g>
<g transform="matrix(0.64 0 0 0.64 250 250)"  >
<g style=""   >
		<g transform="matrix(2 0 0 2 0 0)" id="path_0"  >
<path style="stroke: none; stroke-width: 1; stroke-dasharray: none; stroke-linecap: butt; stroke-dashoffset: 0; stroke-linejoin: miter; stroke-miterlimit: 4; fill: rgb(255,255,255); fill-rule: nonzero; opacity: 1;"  transform=" translate(-256.11, -255.56)" d="M 296.235 77.7502 C 316.385 75.5917 336.835 87.7488 345.693 105.701 C 347.619 109.606 348.445 114.058 350.749 117.775 C 363.842 113.185 379.695 118.074 390.244 126.31 C 402.683 136.021 405.27 146.419 407.076 160.791 C 423.043 170.436 429.956 187.555 427.046 205.953 C 453.613 219.297 458.794 256.247 439.834 278.75 C 447.037 290.651 446.983 306.661 437.613 317.451 C 435.587 319.784 433.096 321.643 431.175 324.082 L 430.922 324.409 C 429.569 327.657 429.119 331.136 428.082 334.485 C 422.015 354.07 411.538 359.498 395.562 367.973 C 393.561 387.54 370.561 405.823 351.405 407.559 C 346.912 407.966 342.426 407.458 337.932 407.738 C 335.265 413.843 327.414 422.373 321.925 425.958 C 298.95 440.968 270.477 432.973 255.928 410.294 C 246.773 424.707 231.589 434.467 213.938 433.381 C 194.311 431.972 183.826 423.202 173.861 407.738 C 169.833 407.252 165.794 407.389 161.752 407.178 C 140.011 406.039 120.843 389.524 116.97 367.973 C 97.7105 362.284 83.1654 344.81 82.6697 324.409 C 66.2179 312.854 62.711 296.608 71.8916 278.75 C 69.4477 274.746 66.3645 271.254 64.4831 266.898 C 55.7458 246.667 63.9825 214.715 85.1417 205.953 C 85.3631 185.416 86.4365 172.582 105.707 159.54 C 106.218 154.933 106.635 150.525 108.017 146.061 C 114.985 123.549 139.029 110.576 161.624 117.775 L 163.181 113.087 C 177.726 70.0459 237.001 66.1204 255.928 104.747 C 265.765 88.8591 277.043 80.5437 296.235 77.7502 Z M 298.06 89.1588 C 281.694 90.5833 266.35 102.678 262.519 118.881 C 260.813 126.094 261.63 134.223 261.637 141.605 L 261.613 170.316 C 261.634 177.792 263.548 181.774 255.928 185.389 C 247.607 182.311 250.133 176.513 250.158 168.9 L 250.189 141.181 C 250.19 129.976 251.386 120.038 245.853 109.865 C 235.947 91.6521 215.21 84.5482 196.083 92.7184 C 169.935 103.888 175.518 126.582 168.507 129.828 C 165.257 131.333 161.372 129.206 158.226 128.292 C 139.956 122.986 121.018 134.73 117.908 153.27 C 125.479 148.932 150.787 142.34 149.627 156.762 C 146.366 162.876 142.958 159.948 137.562 159.286 C 121.674 157.339 117.419 170.156 116.97 182.545 C 114.786 185.086 110.806 187.216 107.844 184.54 C 105.267 182.211 106.018 177.269 105.707 174.112 C 98.4225 181.723 95.1182 191.181 96.5208 201.595 C 103.784 200.71 118.072 198.263 120.37 207.518 C 118.037 216.438 111.691 211.948 105.037 211.993 C 67.4684 212.246 58.7788 271.292 96.5208 280.857 C 96.4825 274.654 94.9955 267.94 102.721 266.781 C 110.352 269.434 107.599 278.692 107.71 285.059 L 107.525 285.379 C 105.137 289.456 101.737 292.921 99.23 296.948 C 87.035 316.533 93.6813 348.177 117.207 356.039 C 129.593 360.178 125.745 357.72 128.591 368.401 C 134.879 392.001 153.012 396.234 174.326 396.214 C 183.876 396.205 181.244 397.555 185.595 405.102 C 190.478 413.572 198.74 419.147 208.19 421.326 C 226.819 425.054 245.878 414.212 249.592 394.967 C 250.67 389.377 250.212 383.311 250.204 377.636 L 250.165 350.675 C 250.163 345.513 248.093 332.773 257.178 334.438 C 263.186 335.538 261.683 345.154 261.639 349.392 L 261.614 374.27 C 261.601 389.622 260.448 402.798 273.296 413.825 C 290.042 428.198 319.048 423.242 327.554 403.153 C 329.19 399.289 329.433 396.644 333.721 395.092 C 356.445 399.342 378.247 390.395 384.098 366.635 C 384.78 363.866 385.051 360.295 386.593 357.884 C 389.713 356.03 393.45 355.661 396.781 354.317 C 415.629 346.707 423.029 323.423 416.563 305.091 C 414.017 297.873 404.762 287.31 404.177 284.518 C 403.438 280.994 403.741 274.277 404.002 270.68 C 413.991 263.04 415.052 273.435 415.377 280.857 C 456.856 269.778 440.425 206.053 402.823 212.044 C 400.693 212.383 398.165 213.074 396.032 212.643 C 392.598 211.949 390.474 207.117 392.188 204.078 C 395.178 198.776 409.5 200.466 414.284 200.935 C 419.046 201.403 414.994 187.48 414.14 185.198 C 412.475 180.748 409.757 177.908 407.076 174.112 C 406.593 179.59 402.647 192.685 395.89 184.573 C 393.63 181.861 395.078 177.235 394.624 173.91 C 391.526 151.186 367.751 163.2 364.184 158.892 C 361.958 156.204 362.138 152.336 365.133 150.396 C 374.926 144.051 386.392 148.887 395.562 153.27 C 393.94 150.454 392.847 147.417 391.258 144.601 C 383.453 130.766 367.166 124.518 352.034 128.763 C 338.057 132.685 341.42 127.927 338.641 117.831 C 333.801 100.246 316.312 87.4503 298.06 89.1588 Z M 80.6673 286.824 C 76.306 294.988 77.5168 304.033 83.8336 310.624 L 83.8336 306.31 C 85.0101 300.705 86.6454 295.752 89.6858 290.853 C 86.6411 289.6 83.7178 288.053 80.6673 286.824 Z M 430.922 286.824 C 428.094 288.578 425.197 289.793 422.047 290.853 C 424.717 295.611 426.903 300.125 428.517 305.364 C 428.846 306.666 429.185 307.927 429.652 309.187 C 433.269 303.896 435.536 291.884 430.922 286.824 Z" stroke-linecap="round" />
</g>
		<g transform="matrix(2 0 0 2 256.88 -1.4)" id="path_1"  >
<path style="stroke: none; stroke-width: 1; stroke-dasharray: none; stroke-linecap: butt; stroke-dashoffset: 0; stroke-linejoin: miter; stroke-miterlimit: 4; fill: rgb(255,255,255); fill-rule: nonzero; opacity: 1;"  transform=" translate(-384.55, -254.86)" d="M 398.035 234.563 C 413.704 231.583 406.083 274.637 370.688 275.307 C 366.052 275.27 362.096 272.487 363.667 267.371 C 365.727 260.663 391.548 268.082 393.997 244.634 C 394.46 240.195 393.262 236.726 398.035 234.563 Z" stroke-linecap="round" />
</g>
		<g transform="matrix(2 0 0 2 -256.9 -2.55)" id="path_2"  >
<path style="stroke: none; stroke-width: 1; stroke-dasharray: none; stroke-linecap: butt; stroke-dashoffset: 0; stroke-linejoin: miter; stroke-miterlimit: 4; fill: rgb(255,255,255); fill-rule: nonzero; opacity: 1;"  transform=" translate(-127.66, -254.29)" d="M 110.03 233.555 C 123.035 231.418 111.067 259.686 138.115 262.974 C 143.765 263.661 148.034 262.476 149.627 269.191 C 149.044 271.777 147.858 273.408 145.54 274.746 C 117.114 279.469 96.2822 239.887 110.03 233.555 Z" stroke-linecap="round" />
</g>
		<g transform="matrix(2 0 0 2 -242.86 125.17)" id="path_3"  >
<path style="stroke: none; stroke-width: 1; stroke-dasharray: none; stroke-linecap: butt; stroke-dashoffset: 0; stroke-linejoin: miter; stroke-miterlimit: 4; fill: rgb(255,255,255); fill-rule: nonzero; opacity: 1;"  transform=" translate(-134.68, -318.15)" d="M 149.627 294.245 C 154.723 292.309 156.883 297.354 156.734 301.492 C 154.355 306.084 151.286 304.981 146.83 306.187 C 119.628 313.553 128.338 338.233 120.37 342.237 C 102.992 346.298 115.71 296.867 149.627 294.245 Z" stroke-linecap="round" />
</g>
		<g transform="matrix(2 0 0 2 -99.7 -256.63)" id="path_4"  >
<path style="stroke: none; stroke-width: 1; stroke-dasharray: none; stroke-linecap: butt; stroke-dashoffset: 0; stroke-linejoin: miter; stroke-miterlimit: 4; fill: rgb(255,255,255); fill-rule: nonzero; opacity: 1;"  transform=" translate(-206.26, -127.25)" d="M 203.75 109.834 C 231.08 106.367 240.349 146.59 224.117 143.327 C 217.093 141.915 226.605 124.082 206.868 120.724 C 186.628 122.675 194.417 137.87 190.26 142.638 C 185.585 147.998 180.477 142.86 180.391 136.216 C 180.219 122.925 189.543 109.879 203.75 109.834 Z" stroke-linecap="round" />
</g>
		<g transform="matrix(2 0 0 2 100.08 -256.47)" id="path_5"  >
<path style="stroke: none; stroke-width: 1; stroke-dasharray: none; stroke-linecap: butt; stroke-dashoffset: 0; stroke-linejoin: miter; stroke-miterlimit: 4; fill: rgb(255,255,255); fill-rule: nonzero; opacity: 1;"  transform=" translate(-306.14, -127.33)" d="M 302.715 109.834 C 335.548 106.542 337.603 150.583 324.057 144.4 C 316.763 141.071 325.982 128.223 310.585 121.58 C 287.191 116.981 295.142 141.31 287.836 143.286 C 276.337 146.398 280.581 126.275 284.41 120.689 C 288.771 114.326 295.311 111.172 302.715 109.834 Z" stroke-linecap="round" />
</g>
		<g transform="matrix(2 0 0 2 228.67 127.01)" id="path_6"  >
<path style="stroke: none; stroke-width: 1; stroke-dasharray: none; stroke-linecap: butt; stroke-dashoffset: 0; stroke-linejoin: miter; stroke-miterlimit: 4; fill: rgb(255,255,255); fill-rule: nonzero; opacity: 1;"  transform=" translate(-370.44, -319.07)" d="M 348.699 293.501 C 365.716 292.148 383.106 300.049 392.706 314.265 C 396.255 319.52 408.542 348.234 392.359 344.44 C 388.29 342.58 389.108 337.986 388.547 334.232 C 385.933 316.742 370.77 305.43 353.375 304.777 C 347.491 304.556 336.415 307.025 341.795 295.45 C 344.049 294.03 346.105 293.683 348.699 293.501 Z" stroke-linecap="round" />
</g>
		<g transform="matrix(2 0 0 2 127.11 210.26)" id="path_7"  >
<path style="stroke: none; stroke-width: 1; stroke-dasharray: none; stroke-linecap: butt; stroke-dashoffset: 0; stroke-linejoin: miter; stroke-miterlimit: 4; fill: rgb(255,255,255); fill-rule: nonzero; opacity: 1;"  transform=" translate(-319.66, -360.69)" d="M 343.875 329.558 C 357.745 328.272 352.234 366.853 319.199 365.745 C 316.605 375.497 314.716 382.997 305.585 388.668 C 299.762 392.283 285.349 394.858 288.89 384.672 C 290.272 380.697 295.748 380.85 299.072 379.276 C 309.071 373.138 310.622 357.675 299.593 351.578 C 297.637 350.497 294.198 349.703 292.935 347.824 C 289.44 342.628 294.356 337.758 299.726 339.106 C 307.491 341.054 312.391 347.433 316.258 353.934 C 326.755 355.934 338.706 351.596 339.665 339.67 C 340.043 334.961 338.968 331.963 343.875 329.558 Z" stroke-linecap="round" />
</g>
		<g transform="matrix(2 0 0 2 -131.31 208.59)" id="path_8"  >
<path style="stroke: none; stroke-width: 1; stroke-dasharray: none; stroke-linecap: butt; stroke-dashoffset: 0; stroke-linejoin: miter; stroke-miterlimit: 4; fill: rgb(255,255,255); fill-rule: nonzero; opacity: 1;"  transform=" translate(-190.45, -359.85)" d="M 163.964 327.269 C 172.012 327.764 169.16 334.631 170.051 340.089 C 171.745 350.479 181.689 356.58 191.752 353.815 C 198.956 351.836 201.388 340.306 213.611 338.53 C 217.279 337.997 221.053 340.254 221.412 344.154 C 221.849 348.916 215.403 349.912 212.274 351.592 C 202.084 357.063 200.906 370.036 209.411 377.493 C 213.229 380.964 217.362 380.193 220.614 382.769 C 224.563 385.898 222.211 392.202 217.226 392.421 C 203.29 393.033 192.956 378.411 192.476 365.745 C 177.48 366.093 165.431 361.749 160.139 346.189 C 158.061 340.08 156.126 329.775 163.964 327.269 Z" stroke-linecap="round" />
</g>
		<g transform="matrix(2 0 0 2 -173.91 -122.06)" id="path_9"  >
<path style="stroke: none; stroke-width: 1; stroke-dasharray: none; stroke-linecap: butt; stroke-dashoffset: 0; stroke-linejoin: miter; stroke-miterlimit: 4; fill: rgb(255,255,255); fill-rule: nonzero; opacity: 1;"  transform=" translate(-169.15, -194.53)" d="M 198.083 153.27 C 203.735 152.514 210.485 154.952 206.702 161.472 C 204.246 165.705 198.084 163.693 193.644 164.961 C 175.584 170.119 181.593 184.765 178.215 190.433 C 174.44 196.765 168.877 191.705 167.536 185.389 C 152.344 178.553 138.002 193.859 142.264 209.373 C 147.219 227.408 163.019 221.72 164.952 229.669 L 165.033 230.013 C 162.753 247.22 120.448 224.56 132.737 191.712 C 138.177 177.172 154.736 168.413 169.605 174.112 C 174.606 162.477 184.607 152.764 198.083 153.27 Z" stroke-linecap="round" />
</g>
		<g transform="matrix(2 0 0 2 173.06 -121.56)" id="path_10"  >
<path style="stroke: none; stroke-width: 1; stroke-dasharray: none; stroke-linecap: butt; stroke-dashoffset: 0; stroke-linejoin: miter; stroke-miterlimit: 4; fill: rgb(255,255,255); fill-rule: nonzero; opacity: 1;"  transform=" translate(-342.63, -194.78)" d="M 308.378 153.27 C 323.246 151.995 334.418 159.839 341.795 172.497 C 374.35 165.609 395.842 205.259 370.623 228.23 C 363.208 234.984 353.603 236.819 343.875 236.369 C 343.137 235.812 342.472 235.191 341.795 234.563 C 335.191 220.678 356.355 230.417 366.952 215.148 C 377.213 200.365 363.544 179.669 343.875 183.805 C 344.44 188.733 341.935 194.557 336.007 191.861 C 331.164 189.658 332.934 181.956 331.304 177.607 C 324.285 158.889 307.076 169.023 303.596 159.54 C 304.328 156.22 304.916 154.557 308.378 153.27 Z" stroke-linecap="round" />
</g>
		<g transform="matrix(2 0 0 2 88.25 1.02)" id="path_11"  >
<path style="stroke: none; stroke-width: 1; stroke-dasharray: none; stroke-linecap: butt; stroke-dashoffset: 0; stroke-linejoin: miter; stroke-miterlimit: 4; fill: rgb(255,255,255); fill-rule: nonzero; opacity: 1;"  transform=" translate(-300.23, -256.07)" d="M 294.002 200.001 C 319.924 197.074 319.182 206.429 319.192 228.624 L 319.208 284.436 C 319.225 296.229 321.708 308.168 307.435 312.521 C 283.865 313.483 281.249 310.088 281.242 286.688 L 281.247 228.001 C 281.25 216.741 278.613 201.858 294.002 200.001 Z M 294.002 211.01 C 290.906 211.736 292.268 216.518 292.254 218.968 L 292.215 290.331 C 292.215 293.856 292.011 297.489 292.217 301.002 C 297.275 300.738 302.37 301.038 307.435 301.002 L 307.955 300.845 C 309.195 298.123 308.372 292.09 308.372 289.057 L 308.378 211.01 C 303.564 211.443 298.821 211.314 294.002 211.01 Z" stroke-linecap="round" />
</g>
		<g transform="matrix(2 0 0 2 -81.97 3.03)" id="path_12"  >
<path style="stroke: none; stroke-width: 1; stroke-dasharray: none; stroke-linecap: butt; stroke-dashoffset: 0; stroke-linejoin: miter; stroke-miterlimit: 4; fill: rgb(255,255,255); fill-rule: nonzero; opacity: 1;"  transform=" translate(-215.12, -257.08)" d="M 206.868 200.001 C 225.509 199.422 236.156 197.635 241.788 217.567 C 246.516 234.295 250.45 251.303 254.871 268.118 L 259.341 284.89 C 261.205 291.967 262.725 296.671 258.831 303.517 C 249.122 320.585 225.265 315.111 220.581 296.94 C 220.533 296.048 220.575 295.139 220.581 294.245 L 209.411 294.245 C 205.514 309.738 192.166 320.842 177.127 310.354 C 163.595 300.918 170.185 284.445 173.832 271.72 L 187.293 224.064 C 190.896 211.602 191.542 202.285 206.868 200.001 Z M 208.19 211.01 C 205.64 211.279 203.697 211.877 202.053 213.954 C 200.359 216.094 180.63 288.199 179.774 294.421 C 178.82 301.361 189.259 304.933 194.322 300.59 C 197.45 297.907 199.778 287.525 200.931 282.75 L 221.375 282.75 L 228.61 282.75 C 229.953 288.277 231.149 298.228 236.148 301.356 C 240.484 304.07 246.112 302.764 248.734 298.351 C 251.341 293.963 248.465 287.596 247.344 283.084 L 236.798 242.678 C 235.664 238.26 230.852 214.182 227.448 212.248 C 223.984 210.28 212.379 210.823 208.19 211.01 Z" stroke-linecap="round" />
</g>
		<g transform="matrix(2 0 0 2 -82.28 -14.58)" id="path_13"  >
<path style="stroke: none; stroke-width: 1; stroke-dasharray: none; stroke-linecap: butt; stroke-dashoffset: 0; stroke-linejoin: miter; stroke-miterlimit: 4; fill: rgb(255,255,255); fill-rule: nonzero; opacity: 1;"  transform=" translate(-214.97, -248.27)" d="M 213.938 231.323 C 215.046 231.287 216.156 231.314 217.264 231.323 C 219.983 242.554 222.281 253.91 224.662 265.218 C 221.673 265.271 218.677 265.223 215.687 265.218 C 212.498 264.8 208.488 264.975 205.269 265.218 C 206.199 260.83 211.758 233.532 213.938 231.323 Z" stroke-linecap="round" />
</g>
</g>
</g>
</svg>